nColumns=19
nRows=99
DataType=double
version=3
OpenSimVersion=4.1
endheader
time	ground_force_calcn_r_vx	ground_force_calcn_r_vy	ground_force_calcn_r_vz	ground_force_calcn_r_px	ground_force_calcn_r_py	ground_force_calcn_r_pz	ground_force_calcn_r_mx	ground_force_calcn_r_my	ground_force_calcn_r_mz	ground_force_calcn_l_vx	ground_force_calcn_l_vy	ground_force_calcn_l_vz	ground_force_calcn_l_px	ground_force_calcn_l_py	ground_force_calcn_l_pz	ground_force_calcn_l_mx	ground_force_calcn_l_my	ground_force_calcn_l_mz
2.55	0	0	0	0	0	0	0	0	0	-238.517	1576.3	-0.247404	1.0121	0	-0.631818	-0.538564	3.55922	-0.000558628
2.55833	0	0	0	0	0	0	0	0	0	-182.688	1724.23	-0.150524	0.978754	0	-0.632788	-0.247964	2.34032	-0.000204308
2.56667	0	0	0	0	0	0	0	0	0	-127.752	1822.14	-3.80296	0.948054	0	-0.633613	-0.085021	1.21266	-0.00253093
2.575	0	0	0	0	0	0	0	0	0	-87.6206	1871.37	-3.81329	0.921605	0	-0.634115	-0.0117944	0.251901	-0.000513299
2.58333	0	0	0	0	0	0	0	0	0	-58.0626	1875.38	-0.716225	0.896916	0	-0.634668	0.0156791	-0.506424	0.000193408
2.59167	0	0	0	0	0	0	0	0	0	-25.7172	1841.88	0.843955	0.870141	0	-0.635754	0.0141223	-1.01145	-0.000463448
2.6	0	0	0	0	0	0	0	0	0	10.9507	1783.37	-0.783264	0.841207	0	-0.637083	-0.007304	-1.18949	0.000522429
2.60833	0	0	0	0	0	0	0	0	0	44.0292	1705.78	-4.53299	0.812806	0	-0.637857	-0.0251827	-0.975628	0.00259266
2.61667	0	0	0	0	0	0	0	0	0	73.6564	1604.34	-10.7455	0.78503	0	-0.637816	-0.0165515	-0.360515	0.00241464
2.625	0	0	0	0	0	0	0	0	0	112.711	1473.58	-20.9075	0.753241	0	-0.637232	0.0431917	0.564689	-0.0080119
2.63333	0	0	0	0	0	0	0	0	0	165.435	1314.31	-33.919	0.714323	0	-0.636084	0.199376	1.58396	-0.0408778
2.64167	0	0	0	0	0	0	0	0	0	214.216	1136.09	-45.2485	0.672896	0	-0.634457	0.452245	2.39847	-0.0955271
2.65	0	0	0	0	0	0	0	0	0	236.004	951.007	-50.2589	0.636959	0	-0.632963	0.685342	2.76167	-0.145949
2.65833	0	0	0	0	0	0	0	0	0	226.117	762.132	-47.6042	0.608639	0	-0.631923	0.7667	2.58418	-0.161413
2.66667	0	0	0	0	0	0	0	0	0	197.519	569.215	-39.4637	0.582346	0	-0.631099	0.667263	1.92293	-0.133317
2.675	0	0	0	0	0	0	0	0	0	158.871	383.608	-29.0515	0.553843	0	-0.63058	0.406326	0.981109	-0.0743017
2.68333	0	0	0	0	0	0	0	0	0	112.973	228.245	-18.3537	0.528117	0	-0.630685	0.0302557	0.0611273	-0.0049154
2.69167	0	0	0	0	0	0	0	0	0	67.2883	119.945	-8.3906	0.522934	0	-0.630259	-0.33627	-0.599417	0.0419315
2.7	0	0	0	0	0	0	0	0	0	31.4775	58.2469	-0.680349	0.580074	0	-0.627936	-0.523034	-0.967838	0.0113048
2.70833	0	0	0	0	0	0	0	0	0	10.6355	28.6492	3.17974	0.712951	0	-0.625947	-0.40179	-1.08232	-0.120125
2.71667	0	0	0	0	0	0	0	0	0	1.9496	14.092	3.49846	0.751682	0	-0.617519	-0.110467	-0.798476	-0.198228
2.725	0	0	0	0	0	0	0	0	0	0	0	0	0	0	0	0	0	0
2.73333	0	0	0	0	0	0	0	0	0	0	0	0	0	0	0	0	0	0
2.74167	0	0	0	0	0	0	0	0	0	0	0	0	0	0	0	0	0	0
2.75	0	0	0	0	0	0	0	0	0	0	0	0	0	0	0	0	0	0
2.75833	0	0	0	0	0	0	0	0	0	0	0	0	0	0	0	0	0	0
2.76667	0	0	0	0	0	0	0	0	0	0	0	0	0	0	0	0	0	0
2.775	0	0	0	0	0	0	0	0	0	0	0	0	0	0	0	0	0	0
2.78333	0	0	0	0	0	0	0	0	0	0	0	0	0	0	0	0	0	0
2.79167	-3.42195	14.4102	-0.0454057	1.00757	0	-0.713619	-1.34764	5.67503	-0.0178817	0	0	0	0	0	0	0	0	0
2.8	-5.5371	40.1641	-4.06877	1.12322	0	-0.662017	-1.07268	7.78085	-0.788229	0	0	0	0	0	0	0	0	0
2.80833	-13.4408	121.261	-8.61957	1.14195	0	-0.649283	-1.05942	9.55795	-0.679403	0	0	0	0	0	0	0	0	0
2.81667	-31.8514	308.383	-10.8239	1.14529	0	-0.649551	-1.0872	10.5262	-0.369459	0	0	0	0	0	0	0	0	0
2.825	-64.5117	609.039	-6.47054	1.13941	0	-0.652737	-1.09352	10.3236	-0.10968	0	0	0	0	0	0	0	0	0
2.83333	-107.241	919.629	8.11483	1.12884	0	-0.655773	-1.03925	8.91192	0.078639	0	0	0	0	0	0	0	0	0
2.84167	-151.633	1104.02	31.4773	1.11741	0	-0.657736	-0.906037	6.59671	0.188083	0	0	0	0	0	0	0	0	0
2.85	-200.82	1164.54	55.0923	1.10526	0	-0.658201	-0.682351	3.9569	0.187194	0	0	0	0	0	0	0	0	0
2.85833	-247.314	1213.71	69.3267	1.08734	0	-0.657644	-0.339436	1.66581	0.0951502	0	0	0	0	0	0	0	0	0
2.86667	-259.909	1320.82	71.6577	1.0588	0	-0.657181	-0.0364834	0.185403	0.0100586	0	0	0	0	0	0	0	0	0
2.875	-230.998	1475.15	67.2533	1.02351	0	-0.656964	0.0496654	-0.317163	-0.0144597	0	0	0	0	0	0	0	0	0
2.88333	-186.412	1628.67	62.1437	0.989836	0	-0.656245	-0.0169711	0.148276	0.00565762	0	0	0	0	0	0	0	0	0
2.89167	-144.737	1741.03	57.7724	0.959855	0	-0.654776	-0.11465	1.37911	0.0457628	0	0	0	0	0	0	0	0	0
2.9	-105.493	1805.72	52.2084	0.930525	0	-0.653042	-0.177225	3.03354	0.087708	0	0	0	0	0	0	0	0	0
2.90833	-63.0012	1832.99	44.5989	0.900223	0	-0.651386	-0.162086	4.71583	0.114742	0	0	0	0	0	0	0	0	0
2.91667	-18.3074	1828.89	36.8116	0.869759	0	-0.64975	-0.0604739	6.04128	0.121597	0	0	0	0	0	0	0	0	0
2.925	22.4461	1795.88	31.3575	0.840069	0	-0.648159	0.0838409	6.70799	0.117127	0	0	0	0	0	0	0	0	0
2.93333	60.1559	1734.82	29.2924	0.810379	0	-0.646961	0.227534	6.56179	0.110796	0	0	0	0	0	0	0	0	0
2.94167	102.478	1641.75	30.4729	0.778244	0	-0.646386	0.351017	5.62346	0.104378	0	0	0	0	0	0	0	0	0
2.95	155.077	1513.76	34.5296	0.741732	0	-0.64635	0.418249	4.08269	0.0931279	0	0	0	0	0	0	0	0	0
2.95833	212.907	1357.64	40.4735	0.70298	0	-0.646876	0.355635	2.26777	0.0676061	0	0	0	0	0	0	0	0	0
2.96667	258.527	1182.27	46.0378	0.666497	0	-0.647927	0.125875	0.575635	0.0224154	0	0	0	0	0	0	0	0	0
2.975	278.643	989.727	48.5536	0.633061	0	-0.648943	-0.18523	-0.65793	-0.0322765	0	0	0	0	0	0	0	0	0
2.98333	273.334	783.909	46.573	0.601586	0	-0.649443	-0.437556	-1.25489	-0.0745546	0	0	0	0	0	0	0	0	0
2.99167	247.163	578.446	40.4416	0.57263	0	-0.649418	-0.519708	-1.2163	-0.0850365	0	0	0	0	0	0	0	0	0
3	202.557	390.963	31.608	0.545579	0	-0.648356	-0.368684	-0.711608	-0.0575312	0	0	0	0	0	0	0	0	0
3.00833	144.752	236.79	21.8551	0.518836	0	-0.644748	-0.00104198	-0.0017045	-0.000157321	0	0	0	0	0	0	0	0	0
3.01667	86.288	125.554	13.1515	0.496658	0	-0.63655	0.478924	0.69686	0.0729946	0	0	0	0	0	0	0	0	0
3.025	40.8177	56.9453	7.30865	0.489892	0	-0.615981	0.934305	1.30346	0.167293	0	0	0	0	0	0	0	0	0
3.03333	15.1332	23.2003	4.81514	0.520709	0	-0.557688	1.22121	1.87221	0.388571	0	0	0	0	0	0	0	0	0
3.04167	5.38424	12.5815	4.3059	0.64326	0	-0.505999	1.07032	2.50103	0.855957	0	0	0	0	0	0	0	0	0
3.05	1.96228	10.7353	3.95671	0.737445	0	-0.561144	0.550094	3.00947	1.1092	0	0	0	0	0	0	0	0	0
3.05833	0	0	0	0	0	0	0	0	0	0	0	0	0	0	0	0	0	0
3.06667	0	0	0	0	0	0	0	0	0	0	0	0	0	0	0	0	0	0
3.075	0	0	0	0	0	0	0	0	0	0	0	0	0	0	0	0	0	0
3.08333	0	0	0	0	0	0	0	0	0	0	0	0	0	0	0	0	0	0
3.09167	0	0	0	0	0	0	0	0	0	0	0	0	0	0	0	0	0	0
3.1	0	0	0	0	0	0	0	0	0	0	0	0	0	0	0	0	0	0
3.10833	0	0	0	0	0	0	0	0	0	0	0	0	0	0	0	0	0	0
3.11667	0	0	0	0	0	0	0	0	0	-4.95855	16.8122	3.66606	1.0092	0	-0.616367	0.122534	-0.415459	-0.0905945
3.125	0	0	0	0	0	0	0	0	0	-10.2436	44.5302	3.89385	1.10644	0	-0.611874	0.268075	-1.16536	-0.101902
3.13333	0	0	0	0	0	0	0	0	0	-22.7957	129.353	3.20653	1.14946	0	-0.617169	0.265692	-1.50765	-0.0373731
3.14167	0	0	0	0	0	0	0	0	0	-45.2952	325.51	0.518716	1.15845	0	-0.619015	0.16594	-1.19251	-0.00190033
3.15	0	0	0	0	0	0	0	0	0	-75.9678	645.904	-6.64943	1.15348	0	-0.61961	0.0158918	-0.135118	0.001391
3.15833	0	0	0	0	0	0	0	0	0	-111.762	982.513	-20.871	1.1418	0	-0.619693	-0.173273	1.52326	-0.0323578
3.16667	0	0	0	0	0	0	0	0	0	-150.185	1171.05	-40.5434	1.12688	0	-0.619019	-0.436287	3.4019	-0.117779
3.175	0	0	0	0	0	0	0	0	0	-192.131	1194.71	-57.6077	1.11133	0	-0.617843	-0.801581	4.98439	-0.240342
3.18333	0	0	0	0	0	0	0	0	0	-236.613	1195.64	-62.6114	1.09528	0	-0.61711	-1.15844	5.85379	-0.306542
3.19167	0	0	0	0	0	0	0	0	0	-263.271	1278.02	-54.1895	1.07525	0	-0.617232	-1.22079	5.92619	-0.251278
3.2	0	0	0	0	0	0	0	0	0	-251.105	1428.61	-41.5771	1.04773	0	-0.617906	-0.935117	5.32017	-0.154834
3.20833	0	0	0	0	0	0	0	0	0	-210.313	1584.43	-34.8072	1.01523	0	-0.618852	-0.560553	4.22302	-0.0927726
3.21667	0	0	0	0	0	0	0	0	0	-161.344	1705.05	-34.4049	0.982381	0	-0.61978	-0.278368	2.94172	-0.0593589
3.225	0	0	0	0	0	0	0	0	0	-118.395	1785.7	-34.1647	0.952141	0	-0.620366	-0.118517	1.78753	-0.0341997
3.23333	0	0	0	0	0	0	0	0	0	-84.5502	1827.57	-31.5598	0.924762	0	-0.620591	-0.04595	0.993218	-0.0171516
3.24167	0	0	0	0	0	0	0	0	0	-49.1607	1829.23	-30.2147	0.896925	0	-0.620895	-0.0188226	0.700375	-0.0115685
3.25	0	0	0	0	0	0	0	0	0	-6.73305	1797.92	-33.0219	0.866192	0	-0.621447	-0.00356774	0.952689	-0.0174978
3.25833	0	0	0	0	0	0	0	0	0	38.3504	1743.52	-38.332	0.833869	0	-0.621794	0.0371325	1.68815	-0.0371147
3.26667	0	0	0	0	0	0	0	0	0	83.813	1663.31	-43.8262	0.801685	0	-0.621427	0.138319	2.74502	-0.0723279
3.275	0	0	0	0	0	0	0	0	0	135.062	1549.31	-49.8884	0.767497	0	-0.620346	0.338224	3.87982	-0.124931
3.28333	0	0	0	0	0	0	0	0	0	193.282	1404.39	-57.1593	0.728525	0	-0.61889	0.659776	4.79395	-0.195116
3.29167	0	0	0	0	0	0	0	0	0	241.044	1237.71	-63.0885	0.687827	0	-0.617334	1.01526	5.21317	-0.265725
3.3	0	0	0	0	0	0	0	0	0	260.289	1053.59	-63.1817	0.651885	0	-0.615853	1.2355	5.00102	-0.299901
3.30833	0	0	0	0	0	0	0	0	0	252.498	852.489	-55.4121	0.622705	0	-0.614397	1.23797	4.17966	-0.27168
3.31667	0	0	0	0	0	0	0	0	0	227.734	642.368	-42.1461	0.596819	0	-0.613168	1.03469	2.91853	-0.191487
3.325	0	0	0	0	0	0	0	0	0	189.088	440.945	-27.445	0.57062	0	-0.612825	0.656695	1.53138	-0.0953156
3.33333	0	0	0	0	0	0	0	0	0	137.101	269.821	-13.786	0.545379	0	-0.613188	0.187623	0.36925	-0.0188661
3.34167	0	0	0	0	0	0	0	0	0	82.2546	146.489	-2.34385	0.533039	0	-0.612157	-0.204444	-0.364098	0.00582563
3.35	0	0	0	0	0	0	0	0	0	39.5045	72.9489	5.14662	0.566373	0	-0.608385	-0.360092	-0.664943	-0.0469124
3.35833	0	0	0	0	0	0	0	0	0	15.2682	34.6823	7.18719	0.659978	0	-0.604296	-0.250064	-0.568031	-0.117713
3.36667	0	0	0	0	0	0	0	0	0	6.11445	14.7226	5.07158	0.675445	0	-0.592523	-0.0512505	-0.123403	-0.0425093
